<svg xmlns="http://www.w3.org/2000/svg" width="318" height="318" viewBox="0 0 318 318">
    <defs>
        <linearGradient id="myGradient" gradientTransform="rotate(90)">
        <stop offset="0%"  stop-color="#000" />
        <stop offset="100%" stop-color="#aaa" />
        </linearGradient>
    </defs>

    <path fill="#13384e" fill-rule="evenodd" d="M315 3V0h3v3h-3zm0 27v-3h3v3h-3zm0 25v-3h3v3h-3zm0 27v-3h3v3h-3zm0 26v-3h3v3h-3zm0 26v-3h3v3h-3zm0 26v-3h3v3h-3zm0 27v-3h3v3h-3zm0 26v-3h3v3h-3zm0 26v-3h3v3h-3zm0 27v-3h3v3h-3zm0 25v-3h3v3h-3zm0 27v-3h3v3h-3zM288 3V0h3v3h-3zm0 27v-3h3v3h-3zm0 25v-3h3v3h-3zm0 27v-3h3v3h-3zm0 26v-3h3v3h-3zm0 26v-3h3v3h-3zm0 26v-3h3v3h-3zm0 27v-3h3v3h-3zm0 26v-3h3v3h-3zm0 26v-3h3v3h-3zm0 27v-3h3v3h-3zm0 25v-3h3v3h-3zm0 27v-3h3v3h-3zM263 3V0h3v3h-3zm0 27v-3h3v3h-3zm0 25v-3h3v3h-3zm0 27v-3h3v3h-3zm0 26v-3h3v3h-3zm0 26v-3h3v3h-3zm0 26v-3h3v3h-3zm0 27v-3h3v3h-3zm0 26v-3h3v3h-3zm0 26v-3h3v3h-3zm0 27v-3h3v3h-3zm0 25v-3h3v3h-3zm0 27v-3h3v3h-3zM236 3V0h3v3h-3zm0 27v-3h3v3h-3zm0 25v-3h3v3h-3zm0 27v-3h3v3h-3zm0 26v-3h3v3h-3zm0 26v-3h3v3h-3zm0 26v-3h3v3h-3zm0 27v-3h3v3h-3zm0 26v-3h3v3h-3zm0 26v-3h3v3h-3zm0 27v-3h3v3h-3zm0 25v-3h3v3h-3zm0 27v-3h3v3h-3zM210 3V0h3v3h-3zm0 27v-3h3v3h-3zm0 25v-3h3v3h-3zm0 27v-3h3v3h-3zm0 26v-3h3v3h-3zm0 26v-3h3v3h-3zm0 26v-3h3v3h-3zm0 27v-3h3v3h-3zm0 26v-3h3v3h-3zm0 26v-3h3v3h-3zm0 27v-3h3v3h-3zm0 25v-3h3v3h-3zm0 27v-3h3v3h-3zM184 3V0h3v3h-3zm0 27v-3h3v3h-3zm0 25v-3h3v3h-3zm0 27v-3h3v3h-3zm0 26v-3h3v3h-3zm0 26v-3h3v3h-3zm0 26v-3h3v3h-3zm0 27v-3h3v3h-3zm0 26v-3h3v3h-3zm0 26v-3h3v3h-3zm0 27v-3h3v3h-3zm0 25v-3h3v3h-3zm0 27v-3h3v3h-3zM157 3V0h3v3h-3zm0 27v-3h3v3h-3zm0 25v-3h3v3h-3zm0 27v-3h3v3h-3zm0 26v-3h3v3h-3zm0 26v-3h3v3h-3zm0 26v-3h3v3h-3zm0 27v-3h3v3h-3zm0 26v-3h3v3h-3zm0 26v-3h3v3h-3zm0 27v-3h3v3h-3zm0 25v-3h3v3h-3zm0 27v-3h3v3h-3zM131 3V0h3v3h-3zm0 27v-3h3v3h-3zm0 25v-3h3v3h-3zm0 27v-3h3v3h-3zm0 26v-3h3v3h-3zm0 26v-3h3v3h-3zm0 26v-3h3v3h-3zm0 27v-3h3v3h-3zm0 26v-3h3v3h-3zm0 26v-3h3v3h-3zm0 27v-3h3v3h-3zm0 25v-3h3v3h-3zm0 27v-3h3v3h-3zM105 3V0h3v3h-3zm0 27v-3h3v3h-3zm0 25v-3h3v3h-3zm0 27v-3h3v3h-3zm0 26v-3h3v3h-3zm0 26v-3h3v3h-3zm0 26v-3h3v3h-3zm0 27v-3h3v3h-3zm0 26v-3h3v3h-3zm0 26v-3h3v3h-3zm0 27v-3h3v3h-3zm0 25v-3h3v3h-3zm0 27v-3h3v3h-3zM79 3V0h3v3h-3zm0 27v-3h3v3h-3zm0 25v-3h3v3h-3zm0 27v-3h3v3h-3zm0 26v-3h3v3h-3zm0 26v-3h3v3h-3zm0 26v-3h3v3h-3zm0 27v-3h3v3h-3zm0 26v-3h3v3h-3zm0 26v-3h3v3h-3zm0 27v-3h3v3h-3zm0 25v-3h3v3h-3zm0 27v-3h3v3h-3zM52 3V0h3v3h-3zm0 27v-3h3v3h-3zm0 25v-3h3v3h-3zm0 27v-3h3v3h-3zm0 26v-3h3v3h-3zm0 26v-3h3v3h-3zm0 26v-3h3v3h-3zm0 27v-3h3v3h-3zm0 26v-3h3v3h-3zm0 26v-3h3v3h-3zm0 27v-3h3v3h-3zm0 25v-3h3v3h-3zm0 27v-3h3v3h-3zM27 3V0h3v3h-3zm0 27v-3h3v3h-3zm0 25v-3h3v3h-3zm0 27v-3h3v3h-3zm0 26v-3h3v3h-3zm0 26v-3h3v3h-3zm0 26v-3h3v3h-3zm0 27v-3h3v3h-3zm0 26v-3h3v3h-3zm0 26v-3h3v3h-3zm0 27v-3h3v3h-3zm0 25v-3h3v3h-3zm0 27v-3h3v3h-3zM0 3V0h3v3H0zm0 27v-3h3v3H0zm0 25v-3h3v3H0zm0 27v-3h3v3H0zm0 26v-3h3v3H0zm0 26v-3h3v3H0zm0 26v-3h3v3H0zm0 27v-3h3v3H0zm0 26v-3h3v3H0zm0 26v-3h3v3H0zm0 27v-3h3v3H0zm0 25v-3h3v3H0zm0 27v-3h3v3H0z"/>
</svg>
